<svg width="19" height="20" viewBox="0 0 19 20" fill="none" xmlns="http://www.w3.org/2000/svg">
<g clip-path="url(#clip0_62_35)">
<path d="M6.82812 2.28125H12.1719C12.3352 2.28125 12.4688 2.41484 12.4688 2.57812V4.0625H6.53125V2.57812C6.53125 2.41484 6.66484 2.28125 6.82812 2.28125ZM4.75 2.57812V4.0625H2.375C1.06504 4.0625 0 5.12754 0 6.4375V10H7.125H11.875H19V6.4375C19 5.12754 17.935 4.0625 16.625 4.0625H14.25V2.57812C14.25 1.43145 13.3186 0.5 12.1719 0.5H6.82812C5.68145 0.5 4.75 1.43145 4.75 2.57812ZM19 11.1875H11.875V12.375C11.875 13.0318 11.3443 13.5625 10.6875 13.5625H8.3125C7.65566 13.5625 7.125 13.0318 7.125 12.375V11.1875H0V15.9375C0 17.2475 1.06504 18.3125 2.375 18.3125H16.625C17.935 18.3125 19 17.2475 19 15.9375V11.1875Z" fill="black"/>
</g>
<defs>
<clipPath id="clip0_62_35">
<rect width="19" height="19" fill="white" transform="translate(0 0.5)"/>
</clipPath>
</defs>
</svg>
