<svg width="18" height="18" viewBox="0 0 18 18" fill="none" xmlns="http://www.w3.org/2000/svg">
<g clip-path="url(#clip0_62_17)">
<path d="M6.61992 5.17148C6.88359 5.02031 7.21055 4.9957 7.4707 5.18555L12.5332 8.2793C12.7828 8.43398 12.9375 8.70469 12.9375 9C12.9375 9.29531 12.7828 9.56602 12.5332 9.7207L7.4707 12.8145C7.21055 12.9727 6.88359 12.9797 6.61992 12.8285C6.35273 12.6809 6.1875 12.3996 6.1875 12.0938V5.87461C6.1875 5.60039 6.35273 5.31914 6.61992 5.17148ZM18 9C18 13.9711 13.9711 18 9 18C4.02891 18 0 13.9711 0 9C0 4.02891 4.02891 0 9 0C13.9711 0 18 4.02891 18 9ZM9 1.6875C4.96055 1.6875 1.6875 4.96055 1.6875 9C1.6875 13.0395 4.96055 16.3125 9 16.3125C13.0395 16.3125 16.3125 13.0395 16.3125 9C16.3125 4.96055 13.0395 1.6875 9 1.6875Z" fill="black"/>
</g>
<defs>
<clipPath id="clip0_62_17">
<rect width="18" height="18" fill="white"/>
</clipPath>
</defs>
</svg>
