<svg width="18" height="15" viewBox="0 0 18 15" fill="none" xmlns="http://www.w3.org/2000/svg">
<g clip-path="url(#clip0_112_114)">
<path d="M10.8 1.875H7.2V3.75H10.8V1.875ZM11.25 0C11.9953 0 12.6 0.629883 12.6 1.40625V4.21875C12.6 4.99512 11.9953 5.625 11.25 5.625H9.9V6.5625H17.1C17.5978 6.5625 18 6.98145 18 7.5C18 8.01855 17.5978 8.4375 17.1 8.4375H14.4V9.375H15.75C16.4953 9.375 17.1 10.0049 17.1 10.7812V13.5938C17.1 14.3701 16.4953 15 15.75 15H11.25C10.5047 15 9.9 14.3701 9.9 13.5938V10.7812C9.9 10.0049 10.5047 9.375 11.25 9.375H12.6V8.4375H5.4V9.375H6.75C7.49531 9.375 8.1 10.0049 8.1 10.7812V13.5938C8.1 14.3701 7.49531 15 6.75 15H2.25C1.50469 15 0.9 14.3701 0.9 13.5938V10.7812C0.9 10.0049 1.50469 9.375 2.25 9.375H3.6V8.4375H0.9C0.402187 8.4375 0 8.01855 0 7.5C0 6.98145 0.402187 6.5625 0.9 6.5625H8.1V5.625H6.75C6.00469 5.625 5.4 4.99512 5.4 4.21875V1.40625C5.4 0.629883 6.00469 0 6.75 0H11.25ZM15.3 13.125V11.25H11.7V13.125H15.3ZM6.3 11.25H2.7V13.125H6.3V11.25Z" fill="black"/>
</g>
<defs>
<clipPath id="clip0_112_114">
<rect width="18" height="15" fill="white" transform="matrix(-1 0 0 1 18 0)"/>
</clipPath>
</defs>
</svg>
