<svg width="17" height="20" viewBox="0 0 17 20" fill="none" xmlns="http://www.w3.org/2000/svg">
<g clip-path="url(#clip0_62_33)">
<path d="M3.64286 0.5C1.6317 0.5 0 2.0957 0 4.0625V15.9375C0 17.9043 1.6317 19.5 3.64286 19.5H14.5714H15.7857C16.4574 19.5 17 18.9693 17 18.3125C17 17.6557 16.4574 17.125 15.7857 17.125V14.75C16.4574 14.75 17 14.2193 17 13.5625V1.6875C17 1.03066 16.4574 0.5 15.7857 0.5H14.5714H3.64286ZM3.64286 14.75H13.3571V17.125H3.64286C2.97121 17.125 2.42857 16.5943 2.42857 15.9375C2.42857 15.2807 2.97121 14.75 3.64286 14.75ZM4.85714 5.84375C4.85714 5.51719 5.13036 5.25 5.46429 5.25H12.75C13.0839 5.25 13.3571 5.51719 13.3571 5.84375C13.3571 6.17031 13.0839 6.4375 12.75 6.4375H5.46429C5.13036 6.4375 4.85714 6.17031 4.85714 5.84375ZM5.46429 7.625H12.75C13.0839 7.625 13.3571 7.89219 13.3571 8.21875C13.3571 8.54531 13.0839 8.8125 12.75 8.8125H5.46429C5.13036 8.8125 4.85714 8.54531 4.85714 8.21875C4.85714 7.89219 5.13036 7.625 5.46429 7.625Z" fill="black"/>
</g>
<defs>
<clipPath id="clip0_62_33">
<rect width="17" height="19" fill="white" transform="translate(0 0.5)"/>
</clipPath>
</defs>
</svg>
