<svg width="19" height="16" viewBox="0 0 19 16" fill="none" xmlns="http://www.w3.org/2000/svg">
<path d="M16.8889 1H5.27778C4.11172 1 3.16667 1.89531 3.16667 3V10C3.16667 11.1047 4.11172 12 5.27778 12H16.8889C18.0549 12 19 11.1047 19 10V3C19 1.89531 18.0533 1 16.8889 1ZM17.4167 10C17.4167 10.2757 17.1799 10.5 16.8889 10.5H16.3611L12.7557 5.47188C12.6568 5.33438 12.4918 5.25 12.3137 5.25C12.1372 5.25 11.9723 5.3335 11.8747 5.47266L9.80512 8.41359L9.06788 7.45625C8.96892 7.325 8.81059 7.25 8.64236 7.25C8.47383 7.25 8.31534 7.32628 8.21585 7.45544L5.80556 10.5H5.27778C4.98677 10.5 4.75 10.2757 4.75 10V3C4.75 2.72431 4.98677 2.5 5.27778 2.5H16.8889C17.1799 2.5 17.4167 2.72431 17.4167 3V10ZM7.38889 3.5C6.80602 3.5 6.33333 3.94781 6.33333 4.5C6.33333 5.05219 6.80602 5.5 7.38889 5.5C7.97208 5.5 8.44444 5.05219 8.44444 4.5C8.44444 3.94781 7.97274 3.5 7.38889 3.5ZM15.0417 15H3.95833C1.77564 15 0 13.3188 0 11.25V3.75C0 3.3375 0.354601 3 0.791667 3C1.22873 3 1.58333 3.3375 1.58333 3.75V11.25C1.58333 12.4906 2.64878 13.5 3.95833 13.5H15.0417C15.4787 13.5 15.8333 13.8359 15.8333 14.25C15.8333 14.6641 15.4804 15 15.0417 15Z" fill="black"/>
</svg>
