<svg width="22" height="22" viewBox="0 0 22 22" fill="none" xmlns="http://www.w3.org/2000/svg">
<path d="M6.875 11C6.875 11.9539 6.92656 12.8734 7.0168 13.75H14.9832C15.0777 12.8734 15.125 11.9539 15.125 11C15.125 10.0461 15.0734 9.12656 14.9832 8.25H7.0168C6.92227 9.12656 6.875 10.0461 6.875 11ZM5.6375 8.25H0.348047C0.120314 9.13086 0 10.0504 0 11C0 11.9496 0.120314 12.8691 0.348047 13.75H5.6375C5.54727 12.8648 5.5 11.9453 5.5 11C5.5 10.0547 5.54727 9.13516 5.6375 8.25ZM0.799219 6.875H5.81367C6.24336 4.1293 7.09414 1.83047 8.18984 0.360937C4.82539 1.25039 2.08828 3.69102 0.803516 6.875H0.799219ZM7.20586 6.875H14.7941C14.532 5.31094 14.1281 3.92734 13.634 2.80586C13.1828 1.7918 12.6801 1.05703 12.1945 0.592969C11.7133 0.1375 11.3137 0 11 0C10.6863 0 10.2867 0.1375 9.80547 0.592969C9.31992 1.05703 8.81719 1.7918 8.36602 2.80586C7.86758 3.92305 7.46367 5.30664 7.20586 6.875ZM16.1863 6.875H21.2008C19.9117 3.69102 17.1789 1.25039 13.8102 0.360937C14.9059 1.83047 15.7566 4.1293 16.1863 6.875ZM21.652 8.25H16.3625C16.4527 9.13516 16.5 10.0547 16.5 11C16.5 11.9453 16.4527 12.8648 16.3625 13.75H21.652C21.8797 12.8691 22 11.9496 22 11C22 10.0504 21.8797 9.13086 21.652 8.25ZM13.634 19.1898C14.1324 18.0727 14.532 16.6891 14.7941 15.125H7.20586C7.46797 16.6891 7.87188 18.0727 8.36602 19.1898C8.81719 20.2039 9.31992 20.9387 9.80547 21.4027C10.2867 21.8625 10.6863 22 11 22C11.3137 22 11.7133 21.8625 12.1945 21.407C12.6801 20.943 13.1828 20.2082 13.634 19.1941V19.1898ZM16.1863 15.125C15.7566 17.8707 14.9059 20.1695 13.8102 21.6391C17.1789 20.7496 19.9117 18.309 21.2008 15.125H16.1863ZM0.799219 15.125C2.08828 18.309 4.82109 20.7496 8.18555 21.6391C7.08984 20.1695 6.24336 17.8707 5.80938 15.125H0.799219Z" fill="#47A0F4"/>
</svg>
